<svg width="46" height="46" viewBox="0 0 46 46" fill="none" xmlns="http://www.w3.org/2000/svg">
<path d="M45.5 22.9999C45.5 23.0608 45.4997 23.1217 45.4993 23.1825C45.4777 25.9063 44.9721 28.5147 44.0641 30.9261C43.6951 31.906 43.2598 32.8534 42.7635 33.7627C42.6744 33.9262 42.5831 34.0885 42.4899 34.2495C41.3504 36.2199 39.9204 38.0012 38.2587 39.5353C34.2486 43.2378 28.8886 45.5 23.0001 45.5C17.1116 45.5 11.7514 43.2378 7.74127 39.5353C6.07958 38.0012 4.64959 36.2199 3.51007 34.2495C3.41688 34.0885 3.32565 33.9262 3.23645 33.7627C2.74021 32.8534 2.30487 31.906 1.93597 30.9261C1.02803 28.5147 0.522339 25.9063 0.500671 23.1825C0.500273 23.1217 0.5 23.0608 0.5 22.9999C0.5 22.939 0.500273 22.8781 0.500671 22.8174C0.522339 20.0935 1.02803 17.4852 1.93597 15.0737C2.30487 14.0939 2.74021 13.1463 3.23645 12.2371C3.32565 12.0736 3.41688 11.9112 3.51007 11.7502C4.64959 9.77989 6.07958 7.99855 7.74127 6.46448C11.7514 2.76197 17.1116 0.5 23.0001 0.5C28.8886 0.5 34.2486 2.76197 38.2587 6.46448C39.9204 7.99855 41.3504 9.77989 42.4899 11.7502C42.5831 11.9112 42.6744 12.0736 42.7635 12.2371C43.2598 13.1463 43.6951 14.0939 44.0641 15.0737C44.9721 17.4852 45.4777 20.0935 45.4993 22.8174C45.4997 22.8781 45.5 22.939 45.5 22.9999Z" fill="white" stroke="#EFF1F4" stroke-miterlimit="10"/>
<path d="M23.0643 15.8301C20.2169 15.8301 17.7557 17.4808 16.5854 19.8768C16.3194 20.9057 16.1748 22.7716 18.0557 24.0161C20.7702 25.8121 22.8225 23.4018 23.2008 22.7306C23.5791 22.0594 25.3762 20.8211 27.5515 21.757C29.6533 22.6611 29.9536 24.9506 29.2209 26.7755C29.8864 25.6846 30.27 24.4029 30.27 23.0317C30.27 19.0544 27.0438 15.8301 23.0643 15.8301Z" fill="#E6042D"/>
<path d="M27.5513 21.7571C25.376 20.8212 23.5789 22.0596 23.2006 22.7307C22.8223 23.4019 20.77 25.8122 18.0555 24.0162C16.1746 22.7717 16.3192 20.9058 16.5853 19.877C16.1199 20.8298 15.8584 21.9002 15.8584 23.0319C15.8584 27.0092 19.0845 30.2335 23.0641 30.2335C25.6717 30.2335 27.9557 28.8491 29.2207 26.7756C29.9535 24.9508 29.6531 22.6613 27.5513 21.7571Z" fill="#00317B"/>
<path d="M12.0522 11.3893L8.00146 17.3521L8.96819 18.0088L13.019 12.046L12.0522 11.3893Z" fill="#1F191A"/>
<path d="M13.5512 12.3878L9.50049 18.3506L10.4671 19.0072L14.5178 13.0445L13.5512 12.3878Z" fill="#1F191A"/>
<path d="M15.0833 13.3867L11.0322 19.3494L11.9988 20.0061L16.0499 14.0434L15.0833 13.3867Z" fill="#1F191A"/>
<path d="M31.0044 13.3982L30.0337 14.0491L31.8672 16.7835L32.838 16.1326L31.0044 13.3982Z" fill="#1F191A"/>
<path d="M33.1469 16.6504L32.1763 17.3013L34.0098 20.0356L34.9805 19.3848L33.1469 16.6504Z" fill="#1F191A"/>
<path d="M32.4921 12.3812L31.5215 13.032L35.536 19.0193L36.5066 18.3685L32.4921 12.3812Z" fill="#1F191A"/>
<path d="M33.9902 11.3345L33.0195 11.9854L34.8895 14.7743L35.8602 14.1234L33.9902 11.3345Z" fill="#1F191A"/>
<path d="M36.1571 14.6282L35.1865 15.2791L37.0212 18.015L37.9918 17.3642L36.1571 14.6282Z" fill="#1F191A"/>
<path d="M9.03904 28.0876L8.06836 28.7385L12.0138 34.6225L12.9845 33.9716L9.03904 28.0876Z" fill="#1F191A"/>
<path d="M12.0532 26.075L11.0825 26.7258L15.0278 32.61L15.9985 31.9591L12.0532 26.075Z" fill="#1F191A"/>
<path d="M10.4971 26.9834L9.52637 27.6343L11.3964 30.4233L12.3671 29.7724L10.4971 26.9834Z" fill="#1F191A"/>
<path d="M12.6636 30.2772L11.6929 30.928L13.5273 33.6641L14.498 33.0133L12.6636 30.2772Z" fill="#1F191A"/>
<path d="M29.9487 32.0115L30.9153 32.6682L32.7846 29.9198L31.8085 29.2769L29.9487 32.0115Z" fill="#1F191A"/>
<path d="M34.9693 26.7075L34.0027 26.0508L32.1543 28.7683L33.1304 29.4113L34.9693 26.7075Z" fill="#1F191A"/>
<path d="M36.4683 27.7061L35.5015 27.0493L33.6587 29.7589L34.6348 30.4019L36.4683 27.7061Z" fill="#1F191A"/>
<path d="M31.4473 33.0101L32.4139 33.6669L34.2886 30.9105L33.3124 30.2676L31.4473 33.0101Z" fill="#1F191A"/>
<path d="M38.0001 28.7045L37.0333 28.0479L35.1855 30.7646L36.1616 31.4075L38.0001 28.7045Z" fill="#1F191A"/>
<path d="M32.9795 34.0085L33.9462 34.6653L35.8159 31.9161L34.8398 31.2732L32.9795 34.0085Z" fill="#1F191A"/>
</svg>
