<svg width="45" height="45" viewBox="0 0 45 45" fill="none" xmlns="http://www.w3.org/2000/svg">
<path d="M45 22.4999C45 22.5608 44.9997 22.6217 44.9993 22.6825C44.9777 25.4063 44.4721 28.0147 43.5641 30.4261C43.1951 31.406 42.7598 32.3534 42.2635 33.2627C42.1744 33.4262 42.0831 33.5885 41.9899 33.7495C40.8504 35.7199 39.4204 37.5012 37.7587 39.0353C33.7486 42.7378 28.3886 45 22.5001 45C16.6116 45 11.2514 42.7378 7.24127 39.0353C5.57958 37.5012 4.14959 35.7199 3.01007 33.7495C2.91688 33.5885 2.82565 33.4262 2.73645 33.2627C2.24021 32.3534 1.80487 31.406 1.43597 30.4261C0.528027 28.0147 0.0223395 25.4063 0.000671387 22.6825C0.000273158 22.6217 0 22.5608 0 22.4999C0 22.439 0.000273158 22.3781 0.000671387 22.3174C0.0223395 19.5935 0.528027 16.9852 1.43597 14.5737C1.80487 13.5939 2.24021 12.6463 2.73645 11.7371C2.82565 11.5736 2.91688 11.4112 3.01007 11.2502C4.14959 9.27989 5.57958 7.49855 7.24127 5.96448C11.2514 2.26197 16.6116 0 22.5001 0C28.3886 0 33.7486 2.26197 37.7587 5.96448C39.4204 7.49855 40.8504 9.27989 41.9899 11.2502C42.0831 11.4112 42.1744 11.5736 42.2635 11.7371C42.7598 12.6463 43.1951 13.5939 43.5641 14.5737C44.4721 16.9852 44.9777 19.5935 44.9993 22.3174C44.9997 22.3781 45 22.439 45 22.4999Z" fill="#E51C1C"/>
<path d="M22.4999 10.293L25.4554 19.3892H35.0198L27.282 25.011L30.2376 34.1072L22.4999 28.4854L14.7621 34.1072L17.7177 25.011L9.97998 19.3892H19.5443L22.4999 10.293Z" fill="#FFFF00"/>
</svg>
