<svg
  width="13"
  height="15"
  viewBox="0 0 13 15"
  fill="none"
  xmlns="http://www.w3.org/2000/svg"
>
  <path
    d="M11.7001 6.1001C11.7001 9.59524 7.82277 13.2352 6.52075 14.3594C6.27158 14.5467 5.9285 14.5467 5.67932 14.3594C4.3773 13.2352 0.5 9.59524 0.5 6.1001C0.5 3.00726 3.0072 0.5 6.10004 0.5C9.19287 0.5 11.7001 3.00726 11.7001 6.1001Z"
    stroke="#F35B2A"
    stroke-linecap="round"
    stroke-linejoin="round"
  />
  <path
    d="M6.10004 8.2002C7.25985 8.2002 8.20007 7.25991 8.20007 6.1001C8.20007 4.94029 7.25985 4 6.10004 4C4.94022 4 4 4.94029 4 6.1001C4 7.25991 4.94022 8.2002 6.10004 8.2002Z"
    stroke="#F35B2A"
    stroke-linecap="round"
    stroke-linejoin="round"
  />
</svg>
