<svg width="15" height="15" viewBox="0 0 15 15" fill="none" xmlns="http://www.w3.org/2000/svg">
<path d="M8.78241 10.6978C9.0802 10.8345 9.43303 10.7461 9.63153 10.4854L9.88 10.1602C10.1444 9.80763 10.5593 9.6001 11 9.6001H13.1C13.8732 9.6001 14.5 10.2268 14.5 11V13.1001C14.5 13.8733 13.8732 14.5 13.1 14.5C6.14125 14.5 0.5 8.85869 0.5 1.8999C0.5 1.1267 1.12683 0.5 1.90002 0.5H4C4.7732 0.5 5.40002 1.1267 5.40002 1.8999V4C5.40002 4.44066 5.19255 4.85572 4.84003 5.12012L4.51239 5.36572C4.24742 5.56804 4.1619 5.92885 4.30798 6.22852C5.26466 8.17162 6.83811 9.74351 8.78241 10.6978Z" stroke="#F35B2A" stroke-linecap="round" stroke-linejoin="round"/>
</svg>
