<svg width="48" height="60" viewBox="0 0 48 60" fill="none" xmlns="http://www.w3.org/2000/svg">
<path fill-rule="evenodd" clip-rule="evenodd" d="M24 0C15.7157 0 9 6.71574 9 15C9 23.2843 15.7157 30 24 30C32.2842 30 39 23.2843 39 15C39 6.71574 32.2842 0 24 0ZM15 15C15 10.0295 19.0293 6 24 6C28.9707 6 33 10.0295 33 15C33 19.9706 28.9707 24 24 24C19.0293 24 15 19.9706 15 15Z" fill="#B7B7B7"/>
<path d="M6 57C6 47.0589 14.0589 39 24 39C25.6569 39 27 37.6569 27 36C27 34.3431 25.6569 33 24 33C10.7452 33 0 43.7451 0 57C0 58.6569 1.34316 60 3 60C4.65684 60 6 58.6569 6 57Z" fill="#B7B7B7"/>
<path d="M33 57C33 58.6569 34.3431 60 36 60C37.6569 60 39 58.6569 39 57V51H45C46.6569 51 48 49.6569 48 48C48 46.3431 46.6569 45 45 45H39V39C39 37.3431 37.6569 36 36 36C34.3431 36 33 37.3431 33 39V45H27C25.3431 45 24 46.3431 24 48C24 49.6569 25.3431 51 27 51H33V57Z" fill="#F35B2A"/>
</svg>
