<svg width="92" height="60" viewBox="0 0 92 60" fill="none" xmlns="http://www.w3.org/2000/svg">
<path d="M64.1499 47.0752V46.1851L67.4926 42.5259C67.8849 42.0973 68.208 41.7248 68.4618 41.4084C68.7157 41.0886 68.9036 40.7886 69.0255 40.5084C69.1508 40.2249 69.2134 39.9282 69.2134 39.6183C69.2134 39.2623 69.1277 38.954 68.9563 38.6936C68.7882 38.4332 68.5574 38.2321 68.264 38.0903C67.9706 37.9486 67.641 37.8777 67.275 37.8777C66.886 37.8777 66.5465 37.9585 66.2564 38.12C65.9696 38.2782 65.7471 38.5008 65.5888 38.7876C65.4339 39.0744 65.3564 39.4106 65.3564 39.7963H64.1894C64.1894 39.2029 64.3262 38.6821 64.5999 38.2337C64.8735 37.7854 65.246 37.436 65.7174 37.1854C66.1921 36.9349 66.7245 36.8096 67.3146 36.8096C67.908 36.8096 68.4338 36.9349 68.892 37.1854C69.3503 37.436 69.7096 37.7739 69.97 38.1991C70.2304 38.6244 70.3607 39.0974 70.3607 39.6183C70.3607 39.9908 70.2931 40.3551 70.1579 40.7111C70.0261 41.0639 69.7953 41.4578 69.4656 41.893C69.1393 42.3248 68.686 42.8523 68.1058 43.4753L65.8311 45.9082V45.9873H70.5387V47.0752H64.1499ZM72.126 44.9983V43.9896L76.5764 36.9481H77.3082V38.5106H76.8137L73.4512 43.8313V43.9105H79.4444V44.9983H72.126ZM76.8929 47.0752V44.6918V44.222V36.9481H78.0598V47.0752H76.8929ZM81.4755 47.0752V36.9481H82.7019V41.4578H88.1017V36.9481H89.328V47.0752H88.1017V42.5457H82.7019V47.0752H81.4755Z" fill="#F35B2A"/>
<path d="M50 18.4854C50 16.3637 49.1572 14.3287 47.6569 12.8284L37.1716 2.34326C35.6713 0.842972 33.6365 0 31.5147 0H8C3.58173 0 0 3.58172 0 8V52C0 56.4183 3.58172 60 8 60H36.2931C34.7976 59.2039 33.3931 58.1757 32.1326 56.9153C31.8354 56.618 31.551 56.3126 31.2796 56H8C5.79086 56 4 54.2091 4 52V8C4 5.79086 5.79087 4 8 4H31.5147C32.5756 4 33.593 4.42149 34.3431 5.17163L44.8284 15.657C45.5786 16.4071 46 17.4245 46 18.4854V27.062C47.3539 27.1758 48.697 27.4464 50 27.8738V18.4854Z" fill="#B7B7B7"/>
<path d="M25 47C25.7304 47 26.45 46.954 27.1561 46.8647C26.977 45.5284 26.952 44.1755 27.0811 42.8345C26.4035 42.9435 25.7084 43 25 43C17.8203 43 12 37.1797 12 30C12 22.8203 17.8203 17 25 17C31.6033 17 37.0567 21.9235 37.8898 28.2996C39.1461 27.7865 40.4499 27.4253 41.7731 27.2161C40.4446 19.1516 33.4407 13 25 13C15.6112 13 8 20.6112 8 30C8 39.3888 15.6112 47 25 47Z" fill="#B7B7B7"/>
<path d="M25 20C26.1046 20 27 20.8954 27 22V30C27 31.1046 26.1046 32 25 32H20C18.8954 32 18 31.1046 18 30C18 28.8954 18.8954 28 20 28H23V22C23 20.8954 23.8954 20 25 20Z" fill="#B7B7B7"/>
<path fill-rule="evenodd" clip-rule="evenodd" d="M54.7938 34.2539C49.1219 28.582 39.9259 28.582 34.2539 34.2539C28.582 39.9259 28.582 49.1221 34.2539 54.794C39.4461 59.9862 47.5913 60.4253 53.283 56.1116L56.5858 59.4143C57.3668 60.1954 58.6332 60.1954 59.4142 59.4143C60.1953 58.6333 60.1953 57.367 59.4142 56.586L56.1115 53.283C60.4252 47.5913 59.986 39.4461 54.7938 34.2539ZM37.0824 37.0825C41.1922 32.9726 47.8556 32.9726 51.9654 37.0825C56.0752 41.1923 56.0752 47.8558 51.9654 51.9656C47.8556 56.0754 41.1922 56.0754 37.0824 51.9656C32.9725 47.8558 32.9725 41.1923 37.0824 37.0825Z" fill="#F35B2A"/>
</svg>
