<svg width="60" height="60" viewBox="0 0 60 60" fill="none" xmlns="http://www.w3.org/2000/svg">
<path d="M21.1173 38.273C21.1173 39.2701 20.9372 40.1319 20.5771 40.8582C20.2171 41.5845 19.7231 42.1447 19.0953 42.5386C18.4674 42.9325 17.7503 43.1295 16.944 43.1295C16.1376 43.1295 15.4205 42.9325 14.7927 42.5386C14.1649 42.1447 13.6709 41.5845 13.3108 40.8582C12.9507 40.1319 12.7707 39.2701 12.7707 38.273C12.7707 37.2758 12.9507 36.4141 13.3108 35.6877C13.6709 34.9614 14.1649 34.4013 14.7927 34.0073C15.4205 33.6134 16.1376 33.4164 16.944 33.4164C17.7503 33.4164 18.4674 33.6134 19.0953 34.0073C19.7231 34.4013 20.2171 34.9614 20.5771 35.6877C20.9372 36.4141 21.1173 37.2758 21.1173 38.273ZM20.0093 38.273C20.0093 37.4543 19.8724 36.7634 19.5985 36.2002C19.3276 35.637 18.9598 35.2107 18.4951 34.9214C18.0335 34.6321 17.5164 34.4875 16.944 34.4875C16.3715 34.4875 15.853 34.6321 15.3882 34.9214C14.9266 35.2107 14.5588 35.637 14.2849 36.2002C14.0141 36.7634 13.8786 37.4543 13.8786 38.273C13.8786 39.0916 14.0141 39.7826 14.2849 40.3458C14.5588 40.909 14.9266 41.3352 15.3882 41.6245C15.853 41.9138 16.3715 42.0585 16.944 42.0585C17.5164 42.0585 18.0335 41.9138 18.4951 41.6245C18.9598 41.3352 19.3276 40.909 19.5985 40.3458C19.8724 39.7826 20.0093 39.0916 20.0093 38.273ZM23.0423 43.0002V33.5457H26.2369C26.9787 33.5457 27.585 33.6796 28.0558 33.9473C28.5298 34.212 28.8807 34.5706 29.1084 35.023C29.3361 35.4754 29.45 35.9801 29.45 36.5372C29.45 37.0942 29.3361 37.6005 29.1084 38.056C28.8837 38.5115 28.536 38.8747 28.0651 39.1455C27.5942 39.4132 26.991 39.5471 26.2554 39.5471H23.9656V38.5315H26.2185C26.7263 38.5315 27.1341 38.4438 27.4419 38.2684C27.7496 38.0929 27.9727 37.8559 28.1112 37.5574C28.2528 37.2558 28.3236 36.9157 28.3236 36.5372C28.3236 36.1586 28.2528 35.8201 28.1112 35.5216C27.9727 35.223 27.7481 34.9891 27.4372 34.8198C27.1264 34.6475 26.714 34.5613 26.2 34.5613H24.1872V43.0002H23.0423ZM31.2943 43.0002V33.5457H37.0003V34.5613H32.4392V37.7559H36.7048V38.7716H32.4392V41.9846H37.0741V43.0002H31.2943ZM46.561 33.5457V43.0002H45.453L40.301 35.5769H40.2087V43.0002H39.0638V33.5457H40.1718L45.3422 40.9875H45.4346V33.5457H46.561Z" fill="#F35B2A"/>
<path fill-rule="evenodd" clip-rule="evenodd" d="M5 0C4.0981 0 3.30774 0.603747 3.07043 1.47388L0.0704346 12.4739C0.0236645 12.6454 0 12.8222 0 13C0 17.9706 4.02944 22 9 22C11.8273 22 14.35 20.6965 16 18.6575C17.65 20.6965 20.1727 22 23 22C25.8273 22 28.35 20.6965 30 18.6575C31.65 20.6965 34.1727 22 37 22C39.8273 22 42.35 20.6965 44 18.6575C45.65 20.6965 48.1727 22 51 22C55.9706 22 60 17.9706 60 13C60 12.8222 59.9762 12.6454 59.9294 12.4739L56.9294 1.47388C56.6921 0.603747 55.9019 0 55 0H5ZM23 18C20.2386 18 18 15.7614 18 13C18 11.8954 17.1046 11 16 11C14.8954 11 14 11.8954 14 13C14 15.7614 11.7614 18 9 18C6.32107 18 4.13412 15.8933 4.00586 13.2461L6.52759 4H53.4724L55.994 13.2461C55.8657 15.8933 53.6789 18 51 18C48.2386 18 46 15.7614 46 13C46 11.8954 45.1046 11 44 11C42.8954 11 42 11.8954 42 13C42 15.7614 39.7614 18 37 18C34.2386 18 32 15.7614 32 13C32 11.8954 31.1046 11 30 11C28.8954 11 28 11.8954 28 13C28 15.7614 25.7614 18 23 18Z" fill="#B7B7B7"/>
<path d="M5 26C6.10457 26 7 26.8954 7 28V50C7 53.3137 9.6863 56 13 56H47C50.3137 56 53 53.3137 53 50V28C53 26.8954 53.8954 26 55 26C56.1046 26 57 26.8954 57 28V50C57 55.5229 52.5228 60 47 60H13C7.47715 60 3 55.5228 3 50V28C3 26.8954 3.89543 26 5 26Z" fill="#B7B7B7"/>
</svg>
