<svg width="72" height="59" viewBox="0 0 72 59" fill="none" xmlns="http://www.w3.org/2000/svg">
<path d="M15.6662 36.1913C18.5407 36.1913 20.871 33.861 20.871 30.9864C20.871 28.1119 18.5407 25.7816 15.6662 25.7816C12.7916 25.7816 10.4613 28.1119 10.4613 30.9864C10.4613 33.861 12.7916 36.1913 15.6662 36.1913Z" stroke="#B7B7B7" stroke-width="1.5" stroke-linecap="round" stroke-linejoin="round"/>
<path d="M20.6392 57.7315V47.6116L24.8311 52.2703C25.2986 52.8108 25.8637 53.2586 26.497 53.5899L32.8304 56.9039C33.9777 57.5042 35.394 57.0208 35.9345 55.8442C36.4237 54.7794 36.0187 53.5173 35.0014 52.9359L29.4922 49.7878C28.7606 49.3698 28.1309 48.7945 27.6487 48.1035L23.069 41.542C21.5494 39.8972 19.4118 38.9617 17.1724 38.9617H12.6574C9.83353 38.9617 7.37601 40.8933 6.70882 43.6371L4.87664 57.7317" stroke="#B7B7B7" stroke-width="1.5" stroke-linecap="round" stroke-linejoin="round"/>
<path d="M9.82015 47.173V57.7316" stroke="#B7B7B7" stroke-width="1.5" stroke-linecap="round" stroke-linejoin="round"/>
<path d="M52.0271 36.1913C54.9016 36.1913 57.2319 33.861 57.2319 30.9864C57.2319 28.1119 54.9016 25.7816 52.0271 25.7816C49.1525 25.7816 46.8222 28.1119 46.8222 30.9864C46.8222 33.861 49.1525 36.1913 52.0271 36.1913Z" stroke="#F35B2A" stroke-width="1.5" stroke-linecap="round" stroke-linejoin="round"/>
<path d="M34.0509 52.1592L38.2012 49.7875C38.9328 49.3695 39.5625 48.7943 40.0447 48.1033L44.6243 41.5417C46.144 39.8969 48.2815 38.9615 50.521 38.9615H55.0359C57.8597 38.9615 60.3172 40.893 60.9844 43.6368L62.8166 57.7314" stroke="#F35B2A" stroke-width="1.5" stroke-linecap="round" stroke-linejoin="round"/>
<path d="M47.0546 57.7315V47.4914L42.8626 52.2703C42.3951 52.8108 41.83 53.2585 41.1967 53.5898L34.8632 56.9038" stroke="#F35B2A" stroke-width="1.5" stroke-linecap="round" stroke-linejoin="round"/>
<path d="M57.8736 47.173V57.7316" stroke="#F35B2A" stroke-width="1.5" stroke-linecap="round" stroke-linejoin="round"/>
<path d="M60.7969 36.1389H68.868C70.1826 36.1389 71.2473 35.0716 71.2443 33.757L71.1881 9.70827C71.185 8.39799 70.1219 7.3375 68.8117 7.3375H60.2076C60.5251 6.63612 60.6756 5.84302 60.6037 5.00766C60.4078 2.73444 58.5479 0.913681 56.2711 0.765434C53.5548 0.588489 51.2965 2.73933 51.2965 5.41774C51.2965 6.10247 51.4453 6.75195 51.7102 7.3375H43.9027C42.5904 7.3375 41.5262 8.40142 41.5262 9.71393V17.4878C40.8247 17.1702 40.0315 17.0195 39.196 17.0916C36.9227 17.2878 35.1021 19.1479 34.954 21.4248C34.7775 24.1409 36.9282 26.3989 39.6063 26.3989C40.2909 26.3989 40.9406 26.25 41.5261 25.9851V33.7589C41.5261 35.0713 42.59 36.1353 43.9025 36.1353" stroke="#F35B2A" stroke-width="1.5" stroke-linecap="round" stroke-linejoin="round"/>
<path d="M24.8136 36.135H28.3173C29.6296 36.135 30.6936 35.0711 30.6936 33.7585V25.5058C29.8486 26.1217 28.7895 26.4613 27.6482 26.389C25.3366 26.2425 23.4575 24.3744 23.2997 22.0636C23.1139 19.3405 25.2677 17.0738 27.9511 17.0738C28.9764 17.0738 29.9238 17.4057 30.6936 17.9667V9.714C30.6936 8.40164 29.6298 7.33758 28.3173 7.33758H19.2418C19.8577 8.1826 20.1972 9.2419 20.125 10.3833C19.9785 12.6948 18.1103 14.5739 15.7993 14.7315C13.0763 14.9172 10.8097 12.7634 10.8097 10.0803C10.8097 9.05487 11.1416 8.10736 11.7025 7.33758H3.13161C1.81925 7.33758 0.755245 8.40149 0.755245 9.714V33.7587C0.755245 35.071 1.8191 36.1351 3.13161 36.1351H5.92961" stroke="#B7B7B7" stroke-width="1.5" stroke-linecap="round" stroke-linejoin="round"/>
</svg>
