<svg width="67" height="67" viewBox="0 0 67 67" fill="none" xmlns="http://www.w3.org/2000/svg">
<path d="M32.4283 26.5456C34.3247 26.5456 35.8621 25.0082 35.8621 23.1118C35.8621 21.2153 34.3247 19.678 32.4283 19.678C30.5318 19.678 28.9944 21.2153 28.9944 23.1118C28.9944 25.0082 30.5318 26.5456 32.4283 26.5456Z" stroke="#B7B7B7" stroke-width="1.5" stroke-linecap="round" stroke-linejoin="round"/>
<path d="M28.9943 28.2708L28.9831 28.2813C27.417 29.7373 26.5274 31.7793 26.5274 33.9177V37.7938" stroke="#B7B7B7" stroke-width="1.5" stroke-linecap="round" stroke-linejoin="round"/>
<path d="M35.5997 28.2708L35.6111 28.2813C37.1772 29.7373 38.0668 31.7793 38.0668 33.9177V37.7938" stroke="#B7B7B7" stroke-width="1.5" stroke-linecap="round" stroke-linejoin="round"/>
<path d="M8.80405 42.4755H0.762599V38.5166H8.80405" stroke="#F35B2A" stroke-width="1.5" stroke-linecap="round" stroke-linejoin="round"/>
<path d="M55.5478 38.5166H63.831V42.4755H55.6072" stroke="#F35B2A" stroke-width="1.5" stroke-linecap="round" stroke-linejoin="round"/>
<path d="M44.0678 42.4756H20.6979" stroke="#F35B2A" stroke-width="1.5" stroke-linecap="round" stroke-linejoin="round"/>
<path d="M20.6387 38.5166H44.1275" stroke="#F35B2A" stroke-width="1.5" stroke-linecap="round" stroke-linejoin="round"/>
<path d="M9.30039 0.752314L0.752314 7.4354H66.2473L57.3441 0.752314" stroke="#F35B2A" stroke-width="1.5" stroke-linecap="round" stroke-linejoin="round"/>
<path d="M11.6256 7.43547V11.2553C11.6256 14.0687 13.9976 16.3496 17.0185 16.3496C20.0393 16.3496 22.4884 14.0689 22.4884 11.2553V7.43547" stroke="#F35B2A" stroke-width="1.5" stroke-linecap="round" stroke-linejoin="round"/>
<path d="M0.762599 7.43547V11.2553C0.762599 14.0687 3.21162 16.3496 6.23249 16.3496C9.25335 16.3496 11.6254 14.0689 11.6254 11.2553V7.43547" stroke="#F35B2A" stroke-width="1.5" stroke-linecap="round" stroke-linejoin="round"/>
<path d="M22.4881 7.43547V11.2553C22.4881 14.0687 24.9371 16.3496 27.958 16.3496C30.9789 16.3496 33.4279 14.0689 33.4279 11.2553V7.43547" stroke="#F35B2A" stroke-width="1.5" stroke-linecap="round" stroke-linejoin="round"/>
<path d="M33.428 7.43547V11.2553C33.428 14.0687 35.877 16.3496 38.8979 16.3496C41.9189 16.3496 44.3678 14.0689 44.3678 11.2553V7.43547" stroke="#F35B2A" stroke-width="1.5" stroke-linecap="round" stroke-linejoin="round"/>
<path d="M44.3679 7.43547V11.2553C44.3679 14.0687 46.8169 16.3496 49.8378 16.3496C52.8588 16.3496 55.3077 14.0689 55.3077 11.2553V7.43547" stroke="#F35B2A" stroke-width="1.5" stroke-linecap="round" stroke-linejoin="round"/>
<path d="M55.3078 7.43547V11.2553C55.3078 14.0687 57.7568 16.3496 60.7777 16.3496C63.7987 16.3496 66.2476 14.0689 66.2476 11.2553V7.43547" stroke="#F35B2A" stroke-width="1.5" stroke-linecap="round" stroke-linejoin="round"/>
<path d="M15.0589 32.0961C16.9554 32.0961 18.4927 30.5587 18.4927 28.6622C18.4927 26.7658 16.9554 25.2285 15.0589 25.2285C13.1625 25.2285 11.6251 26.7658 11.6251 28.6622C11.6251 30.5587 13.1625 32.0961 15.0589 32.0961Z" stroke="#B7B7B7" stroke-width="1.5" stroke-linecap="round" stroke-linejoin="round"/>
<path d="M11.6251 33.8213L11.6137 33.8319C10.0476 35.2879 9.15805 37.3298 9.15805 39.4682V43.3443C9.15805 44.3648 9.36109 45.3751 9.75504 46.3163L10.172 47.3123C10.5565 48.2306 10.7591 49.2148 10.7687 50.2103L11.9187 65.9529" stroke="#B7B7B7" stroke-width="1.5" stroke-linecap="round" stroke-linejoin="round"/>
<path d="M18.2308 33.8213L18.242 33.8319C19.8081 35.2879 20.6977 37.3298 20.6977 39.4682V43.3443C20.6977 44.3648 20.4946 45.3751 20.1007 46.3163L19.6838 47.3123C19.2993 48.2306 19.0967 49.2148 19.0871 50.2103L17.937 65.9529" stroke="#B7B7B7" stroke-width="1.5" stroke-linecap="round" stroke-linejoin="round"/>
<path d="M49.9686 32.0961C51.865 32.0961 53.4023 30.5587 53.4023 28.6622C53.4023 26.7658 51.865 25.2285 49.9686 25.2285C48.0721 25.2285 46.5347 26.7658 46.5347 28.6622C46.5347 30.5587 48.0721 32.0961 49.9686 32.0961Z" stroke="#B7B7B7" stroke-width="1.5" stroke-linecap="round" stroke-linejoin="round"/>
<path d="M46.5347 33.8213L46.5233 33.8319C44.9573 35.2879 44.0677 37.3298 44.0677 39.4682V43.3443C44.0677 44.3648 44.2707 45.3751 44.6646 46.3163L45.0816 47.3123C45.4661 48.2306 45.6687 49.2148 45.6783 50.2103L46.8283 65.9529" stroke="#B7B7B7" stroke-width="1.5" stroke-linecap="round" stroke-linejoin="round"/>
<path d="M53.1402 33.8213L53.1516 33.8319C54.7177 35.2879 55.6073 37.3298 55.6073 39.4682V43.3443C55.6073 44.3648 55.4043 45.3751 55.0103 46.3163L54.5934 47.3123C54.2089 48.2306 54.0063 49.2148 53.9967 50.2103L52.8466 65.9529" stroke="#B7B7B7" stroke-width="1.5" stroke-linecap="round" stroke-linejoin="round"/>
<path d="M4.78327 38.5166V19.678" stroke="#F35B2A" stroke-width="1.5" stroke-linecap="round" stroke-linejoin="round"/>
<path d="M60.7772 38.5166V19.678" stroke="#F35B2A" stroke-width="1.5" stroke-linecap="round" stroke-linejoin="round"/>
</svg>
