<svg width="67" height="67" viewBox="0 0 67 67" fill="none" xmlns="http://www.w3.org/2000/svg">
  <!-- Handshake partnership icon -->
  <!-- Left hand -->
  <path d="M8.5 38L15 31.5L21 35.5L27 32L33.5 35.5" stroke="#F35B2A" stroke-width="1.5" stroke-linecap="round" stroke-linejoin="round"/>
  <path d="M8.5 38L3 43.5L8.5 49L15 42.5" stroke="#F35B2A" stroke-width="1.5" stroke-linecap="round" stroke-linejoin="round"/>
  <path d="M15 42.5L21 48.5L27 42L21 35.5" stroke="#F35B2A" stroke-width="1.5" stroke-linecap="round" stroke-linejoin="round"/>
  
  <!-- Right hand -->
  <path d="M58.5 38L52 31.5L46 35.5L40 32L33.5 35.5" stroke="#F35B2A" stroke-width="1.5" stroke-linecap="round" stroke-linejoin="round"/>
  <path d="M58.5 38L64 43.5L58.5 49L52 42.5" stroke="#F35B2A" stroke-width="1.5" stroke-linecap="round" stroke-linejoin="round"/>
  <path d="M52 42.5L46 48.5L40 42L46 35.5" stroke="#F35B2A" stroke-width="1.5" stroke-linecap="round" stroke-linejoin="round"/>
  
  <!-- Center handshake -->
  <path d="M27 42L33.5 48.5L40 42" stroke="#F35B2A" stroke-width="1.5" stroke-linecap="round" stroke-linejoin="round"/>
  <path d="M33.5 35.5V48.5" stroke="#F35B2A" stroke-width="1.5" stroke-linecap="round" stroke-linejoin="round"/>
  
  <!-- Building/Company left -->
  <rect x="6" y="8" width="18" height="20" rx="1" stroke="#B7B7B7" stroke-width="1.5"/>
  <path d="M10 13H12M10 17H12M10 21H12M18 13H20M18 17H20M18 21H20" stroke="#B7B7B7" stroke-width="1.5" stroke-linecap="round"/>
  <path d="M13 28V24H17V28" stroke="#B7B7B7" stroke-width="1.5" stroke-linecap="round" stroke-linejoin="round"/>
  
  <!-- Building/Company right -->
  <rect x="43" y="8" width="18" height="20" rx="1" stroke="#B7B7B7" stroke-width="1.5"/>
  <path d="M47 13H49M47 17H49M47 21H49M55 13H57M55 17H57M55 21H57" stroke="#B7B7B7" stroke-width="1.5" stroke-linecap="round"/>
  <path d="M50 28V24H54V28" stroke="#B7B7B7" stroke-width="1.5" stroke-linecap="round" stroke-linejoin="round"/>
  
  <!-- Connection lines -->
  <path d="M24 18H43" stroke="#F35B2A" stroke-width="1.5" stroke-linecap="round" stroke-dasharray="3 3"/>
  
  <!-- Stars/sparkles for partnership -->
  <path d="M33.5 5L34.5 8L37.5 8L35 10L36 13L33.5 11L31 13L32 10L29.5 8L32.5 8L33.5 5Z" fill="#F35B2A"/>
</svg>
