<svg width="17" height="17" viewBox="0 0 17 17" fill="none" xmlns="http://www.w3.org/2000/svg">
<path d="M8.09701 0.250759C8.20737 0.0277944 8.47756 -0.0635184 8.70053 0.0468401C8.789 0.0906281 8.8606 0.162291 8.90439 0.250759L10.8678 4.2275C11.1303 4.75882 11.637 5.12734 12.2234 5.21341L16.6141 5.85598C16.8603 5.89166 17.031 6.12015 16.9953 6.36636C16.9811 6.46444 16.9349 6.5551 16.864 6.62429L13.6887 9.71633C13.2636 10.1306 13.0694 10.7274 13.1694 11.3125L13.9189 15.6811C13.9622 15.926 13.7987 16.1597 13.5537 16.203C13.4546 16.2205 13.3525 16.2043 13.2636 16.157L9.33871 14.0934C8.81373 13.8178 8.18681 13.8178 7.66183 14.0934L3.73776 16.157C3.51789 16.2734 3.24527 16.1895 3.12887 15.9696C3.08204 15.8812 3.06604 15.7796 3.08334 15.6811L3.83212 11.3133C3.93253 10.728 3.73833 10.1307 3.31283 9.71633L0.137539 6.62515C-0.0414045 6.45232 -0.0464014 6.16713 0.126431 5.98819C0.196157 5.91599 0.28804 5.86918 0.387417 5.85513L4.77719 5.21341C5.36424 5.128 5.87173 4.75937 6.13449 4.2275L8.09701 0.250759Z" fill="#F35B2A"/>
</svg>
