<svg width="20" height="13" viewBox="0 0 20 13" fill="none" xmlns="http://www.w3.org/2000/svg">
<path fill-rule="evenodd" clip-rule="evenodd" d="M9.99963 12.6005C5.70233 12.6005 1.98816 10.2523 0 6.30011C1.98816 2.34816 5.70229 0 9.99963 0C14.2967 0 18.0112 2.3482 20 6.30011C18.0112 10.2523 14.2967 12.6005 9.99963 12.6005ZM9.99963 1.75952C7.49561 1.75952 5.45911 3.79632 5.45911 6.30011C5.45911 8.80413 7.49565 10.8409 9.99963 10.8409C12.5034 10.8409 14.5402 8.80413 14.5402 6.30011C14.5402 3.79632 12.5034 1.75952 9.99963 1.75952ZM9.99963 9.40082C11.7093 9.40082 13.1001 8.00976 13.1001 6.30011C13.1001 4.59066 11.7093 3.19958 9.99963 3.19958C8.28995 3.19958 6.89917 4.59062 6.89917 6.30011C6.89917 8.0098 8.28999 9.40082 9.99963 9.40082Z" fill="#F35B2A"/>
</svg>
