<svg width="30" height="30" viewBox="0 0 30 30" fill="none" xmlns="http://www.w3.org/2000/svg">
<path d="M15 0C6.729 0 0 6.729 0 15C0 23.271 6.729 30 15 30C23.271 30 30 23.271 30 15C30 6.729 23.271 0 15 0ZM20.6375 13.185L14.594 19.2285C14.3985 19.424 14.143 19.5215 13.887 19.5215C13.631 19.5215 13.3754 19.424 13.1799 19.2285L9.36292 15.4115C8.97241 15.021 8.97241 14.388 9.36292 13.9975C9.75292 13.607 10.3865 13.607 10.777 13.9975L13.887 17.1075L19.2235 11.771C19.6135 11.3805 20.247 11.3805 20.6375 11.771C21.028 12.1615 21.028 12.7945 20.6375 13.185Z" fill="#22BC72"/>
</svg>
