<svg width="26" height="30" viewBox="0 0 26 30" fill="none" xmlns="http://www.w3.org/2000/svg">
<path fill-rule="evenodd" clip-rule="evenodd" d="M14.9628 27.9309H7.7959C7.9666 28.2257 8.1735 28.4988 8.4104 28.743C8.75489 29.0978 9.16242 29.3906 9.60828 29.6026C9.99311 29.7847 10.4048 29.9068 10.8269 29.9637C11.279 30.0237 11.7404 30.0092 12.1873 29.9212C12.5731 29.8447 12.9476 29.7123 13.2962 29.5292C13.7079 29.314 14.0824 29.0285 14.4 28.6892C14.6151 28.4585 14.8045 28.204 14.9628 27.9309Z" fill="#C1300A"/>
<path fill-rule="evenodd" clip-rule="evenodd" d="M1.03448 25.8619H21.7241C22.2951 25.8619 22.7585 25.3985 22.7585 24.8275C22.7585 24.2564 22.2951 23.793 21.7241 23.793H20.6896V11.9782C20.6896 7.4275 17.0782 3.64961 12.4138 3.1572V2.06891C12.4138 1.49787 11.9503 1.03442 11.3793 1.03442C10.8082 1.03442 10.3448 1.49787 10.3448 2.06891V3.1572C5.68032 3.64961 2.06897 7.4275 2.06897 11.9782V23.793H1.03448C0.46345 23.793 0 24.2564 0 24.8275C0 25.3985 0.46345 25.8619 1.03448 25.8619Z" fill="#F35B2A"/>
<path d="M22.7585 6.20688C24.4725 6.20688 25.862 4.81744 25.862 3.10345C25.862 1.38947 24.4725 0 22.7585 0C21.0446 0 19.6552 1.38947 19.6552 3.10345C19.6552 4.81744 21.0446 6.20688 22.7585 6.20688Z" fill="#C1300A"/>
</svg>
