<svg width="16" height="20" viewBox="0 0 16 20" fill="none" xmlns="http://www.w3.org/2000/svg">
<path fill-rule="evenodd" clip-rule="evenodd" d="M6.40936 18.863C6.79436 19.2079 7.18433 19.5479 7.59467 19.8626C7.83127 20.0438 8.16923 20.0437 8.4057 19.8623C8.81557 19.5483 9.20636 19.2073 9.5907 18.863C10.293 18.2338 11.231 17.3329 12.1708 16.2467C14.0225 14.1068 16 11.114 16 8C16 3.58173 12.4183 0 8 0C3.58173 0 0 3.58173 0 8C0 11.114 1.97759 14.1068 3.82922 16.2467C4.76909 17.3329 5.70703 18.2338 6.40936 18.863ZM8 5.33334C6.34313 5.33334 5 6.67648 5 8.33334C5 9.99021 6.34313 11.3333 8 11.3333C9.65687 11.3333 11 9.99021 11 8.33334C11 6.67648 9.65687 5.33334 8 5.33334Z" fill="#9B9B9B"/>
</svg>
