<svg width="30" height="29" viewBox="0 0 30 29" fill="none" xmlns="http://www.w3.org/2000/svg">
<path fill-rule="evenodd" clip-rule="evenodd" d="M7.95065 13.3569C8.77751 14.3792 10.0423 15.0337 11.4585 15.0337C12.8747 15.0337 14.1395 14.3792 14.9663 13.3569C15.7932 14.3792 17.058 15.0337 18.4742 15.0337C19.8904 15.0337 21.1552 14.3792 21.9821 13.3569C22.8089 14.3792 24.0737 15.0337 25.4899 15.0337C27.9795 15.0337 30 13.0131 30 10.5236C30 9.36696 28.3283 4.48705 27.4443 2.03156C27.0274 0.81683 25.8848 0 24.5999 0H5.41098C4.09905 0 2.93841 0.850914 2.54355 2.10172L0.186277 9.56744C-0.155491 10.6499 -0.0232013 11.8255 0.552092 12.8047C1.33586 14.1387 2.78507 15.0337 4.44278 15.0337C5.85894 15.0337 7.12379 14.3792 7.95065 13.3569Z" fill="#70DCF0"/>
<path fill-rule="evenodd" clip-rule="evenodd" d="M2.96051 16.8688L2.94348 25.0501C2.94247 25.8479 3.25817 26.6147 3.82245 27.1799C4.38572 27.7452 5.15141 28.0629 5.9502 28.0629H10.9574V22.0494C10.9574 20.3887 12.3034 19.0427 13.9641 19.0427H15.9686C17.6294 19.0427 18.9753 20.3887 18.9753 22.0494V28.0629H23.9866C24.7843 28.0629 25.5491 27.7462 26.1124 27.1819C26.6766 26.6187 26.9933 25.8539 26.9933 25.0562V16.8638C26.5102 16.9781 26.0071 17.0382 25.4899 17.0382C24.199 17.0382 22.9944 16.6614 21.9821 16.0129C20.9698 16.6614 19.7651 17.0382 18.4742 17.0382C17.1834 17.0382 15.9786 16.6614 14.9664 16.0129C13.9541 16.6614 12.7494 17.0382 11.4585 17.0382C10.1676 17.0382 8.96394 16.6614 7.95069 16.0129C6.93743 16.6614 5.7337 17.0382 4.44281 17.0382C3.93267 17.0382 3.43658 16.9801 2.96051 16.8688Z" fill="#70DCF0"/>
<path fill-rule="evenodd" clip-rule="evenodd" d="M12.9619 28.0628V22.0493C12.9619 21.4961 13.4109 21.0471 13.9642 21.0471H15.9687C16.5219 21.0471 16.9709 21.4961 16.9709 22.0493V28.0628H12.9619Z" fill="#27A4C1"/>
</svg>
