<svg width="27" height="30" viewBox="0 0 27 30" fill="none" xmlns="http://www.w3.org/2000/svg">
<path d="M3.09692 20.3225V25.1612C3.09692 28.3044 9.08036 29.9999 14.7097 29.9999C20.3391 29.9999 26.3226 28.3044 26.3226 25.1612V20.3225H3.09692Z" fill="#FFC107"/>
<path d="M14.7097 25.1613C21.1233 25.1613 26.3226 22.9949 26.3226 20.3226C26.3226 17.6503 21.1233 15.4839 14.7097 15.4839C8.29609 15.4839 3.09692 17.6503 3.09692 20.3226C3.09692 22.9949 8.29609 25.1613 14.7097 25.1613Z" fill="#FFD54F"/>
<path d="M0 12.5806V17.4193C0 20.5625 5.98356 22.258 11.6129 22.258C17.2423 22.258 23.2258 20.5625 23.2258 17.4193V12.5806H0Z" fill="#FFC107"/>
<path d="M11.6129 17.4194C18.0265 17.4194 23.2258 15.253 23.2258 12.5807C23.2258 9.90831 18.0265 7.74194 11.6129 7.74194C5.19929 7.74194 0 9.90831 0 12.5807C0 15.253 5.19929 17.4194 11.6129 17.4194Z" fill="#FFD54F"/>
<path d="M3.09692 4.83862V9.67734C3.09692 12.8206 9.08036 14.5161 14.7097 14.5161C20.3391 14.5161 26.3226 12.8206 26.3226 9.67734V4.83862H3.09692Z" fill="#FFC107"/>
<path d="M14.7097 9.67743C21.1233 9.67743 26.3226 7.51106 26.3226 4.83871C26.3226 2.16637 21.1233 0 14.7097 0C8.29609 0 3.09692 2.16637 3.09692 4.83871C3.09692 7.51106 8.29609 9.67743 14.7097 9.67743Z" fill="#FFD54F"/>
</svg>
